<svg width="55" height="50" viewBox="0 0 55 50" fill="none" xmlns="http://www.w3.org/2000/svg">
<path fill-rule="evenodd" clip-rule="evenodd" d="M26.4782 1.41077C31.9505 1.47549 37.6851 0.435941 42.3902 3.23983C47.3121 6.17291 50.6115 11.3066 52.2953 16.7958C53.9615 22.2275 53.8526 28.1807 51.6467 33.4153C49.5495 38.3917 45.1397 41.8132 40.5568 44.651C36.2735 47.3033 31.5117 48.9893 26.4782 48.9999C21.4366 49.0106 16.5014 47.59 12.3567 44.7104C8.14205 41.7822 5.04168 37.5972 3.17251 32.8081C1.21112 27.7827 0.330579 22.3445 1.57847 17.0948C2.89822 11.5427 5.47294 5.89522 10.2913 2.86018C14.9942 -0.102074 20.9256 1.34509 26.4782 1.41077Z" stroke="#EBEBEB" stroke-width="2"/>
</svg>
