<svg width="142" height="40" viewBox="0 0 142 40" fill="none" xmlns="http://www.w3.org/2000/svg">
<path d="M35.3118 9.65922C34.8081 8.86991 34.1043 8.22913 33.2722 7.80262L21.2298 0.826513C20.2919 0.285011 19.2286 0 18.1464 0C17.0642 0 16.0009 0.285011 15.063 0.826513L3.02064 7.80262C2.0723 8.35104 0.795302 9.36991 0.694949 10.6504C0.456609 13.697 4.37039 15.6039 6.9846 17.0001C11.5005 19.4051 14.4057 20.7988 16.606 23.0554C17.0927 23.5586 17.8604 24.4391 18.1514 25.1309C18.4399 24.4391 19.2101 23.5586 19.6994 23.0554C21.8996 20.7913 24.8124 19.4051 29.3182 17.0001C31.8948 15.6265 35.6806 13.8806 35.6104 10.6529C35.5858 10.3035 35.4837 9.96408 35.3118 9.65922ZM18.1514 18.1196C17.3962 18.1196 16.6579 17.895 16.03 17.4743C15.4021 17.0536 14.9126 16.4556 14.6236 15.7559C14.3346 15.0563 14.259 14.2864 14.4063 13.5437C14.5537 12.8009 14.9174 12.1187 15.4514 11.5832C15.9854 11.0477 16.6658 10.683 17.4065 10.5353C18.1472 10.3876 18.9149 10.4634 19.6127 10.7532C20.3104 11.043 20.9068 11.5338 21.3263 12.1634C21.7459 12.7931 21.9699 13.5334 21.9699 14.2907C21.9699 14.7935 21.8711 15.2914 21.6792 15.7559C21.4873 16.2205 21.2061 16.6426 20.8515 16.9981C20.4969 17.3537 20.0759 17.6357 19.6127 17.8281C19.1494 18.0206 18.6529 18.1196 18.1514 18.1196Z" fill="url(#paint0_linear)"/>
<path d="M29.3258 19.0127C23.9669 21.8655 20.2087 23.1963 18.7485 27.8176C18.4871 28.5557 18.2825 29.3127 18.1364 30.0818C17.9908 29.3127 17.787 28.5557 17.5267 27.8176C16.0666 23.2064 12.3083 21.8756 6.94947 19.0127C1.39241 16.0517 0.208233 14.5699 0 13.9435V27.0956C0.000674879 28.1796 0.285422 29.244 0.8257 30.1829C1.36598 31.1215 2.14281 31.9014 3.07834 32.444L15.1082 39.4101C15.5034 39.6508 15.9241 39.8468 16.3626 39.9937C16.2171 39.4755 16.044 38.927 15.8358 38.3434C12.0725 27.7774 5.4241 25.1811 5.4241 25.1811C5.4241 25.1811 8.52502 25.4327 12.9506 30.0164C15.0982 32.2403 16.7816 34.8994 18.1263 37.6692C18.1263 37.6692 21.0817 32.3107 23.3071 30.0038C27.7352 25.4176 30.8336 25.1686 30.8336 25.1686C30.8336 25.1686 24.1801 27.7673 20.4219 38.3308C20.2162 38.9145 20.0431 39.4629 19.8976 39.9836C20.3357 39.8347 20.7563 39.6382 21.152 39.3975L33.1944 32.434C34.1292 31.8903 34.9052 31.1102 35.4453 30.1718C35.9855 29.2332 36.2707 28.1693 36.2727 27.0855V13.9435C36.067 14.5598 34.8828 16.0542 29.3258 19.0127Z" fill="url(#paint1_linear)"/>
<path d="M52.1903 13.5863L46.2729 26.9195H48.8555L50.2178 23.7649H56.3429L57.7017 26.9195H60.3224L54.3878 13.5863H52.1903ZM55.4174 21.6145H51.1433L53.2786 16.6632L55.4174 21.6145Z" fill="#4E5A6A"/>
<path d="M70.7175 18.2259V16.6051H62.4333V18.7448H67.4773L62.3295 25.3167V26.9195H70.8595V24.7764H65.5699L70.7175 18.2259Z" fill="#4E5A6A"/>
<path d="M80.7511 21.8796C80.7511 23.6624 79.8176 24.6927 78.1933 24.6927C76.7462 24.6927 76.0104 23.8699 76.0104 22.2313V16.6051H73.6192V22.4282C73.6192 25.2835 75.2156 26.9185 77.9992 26.9185C79.0318 26.9414 80.0386 26.5897 80.8379 25.927V26.8131H83.1528V16.6157H80.7616L80.7511 21.8796Z" fill="#4E5A6A"/>
<path d="M89.5052 17.6454V16.6933H87.1669V26.9195H89.5681V21.8452C89.5681 19.9974 90.5012 18.9783 92.1929 18.9783C92.3093 18.9713 92.4259 18.9713 92.5423 18.9783L92.9372 19.0277V16.6051H92.5878C91.2842 16.6192 90.2355 16.9683 89.5052 17.6454Z" fill="#4E5A6A"/>
<path d="M99.407 16.6082C97.9506 16.5632 96.5216 17.0152 95.3502 17.8913L95.1232 18.0756L96.1556 19.9811L96.4754 19.7064C97.2534 19.0936 98.2143 18.7662 99.2005 18.778C100.622 18.778 101.344 19.4212 101.348 20.6869H99.0252C95.4742 20.6869 94.9443 22.6272 94.9443 23.7851C94.9443 25.6455 96.4652 26.9147 98.7291 26.9147C99.6975 26.9615 100.653 26.676 101.44 26.1044V26.7998H103.725V20.7704C103.736 18.086 102.197 16.6082 99.407 16.6082ZM99.0217 24.8909C97.9516 24.8909 97.3013 24.4493 97.3013 23.7121C97.3013 23.4096 97.3013 22.6063 99.0974 22.6063H101.368V23.5035C100.99 24.3867 100.14 24.8909 99.0217 24.8909Z" fill="#4E5A6A"/>
<path d="M109.665 13.5863H107.238V26.9195H116.269V24.642H109.665V13.5863Z" fill="#4E5A6A"/>
<path d="M121.287 16.6051H118.778V26.6679H121.287V16.6051Z" fill="#4E5A6A"/>
<path d="M119.989 12.5808C119.692 12.5894 119.404 12.6859 119.162 12.8581C118.92 13.0304 118.734 13.2707 118.627 13.5488C118.521 13.8269 118.499 14.1303 118.564 14.4209C118.629 14.7115 118.779 14.9762 118.994 15.1818C119.209 15.3874 119.48 15.5246 119.772 15.5761C120.065 15.6276 120.366 15.5912 120.638 15.4714C120.91 15.3516 121.141 15.1538 121.301 14.9028C121.461 14.6519 121.543 14.3591 121.538 14.0613C121.535 13.8616 121.493 13.6644 121.413 13.4813C121.333 13.2982 121.218 13.1329 121.074 12.995C120.929 12.8571 120.759 12.7495 120.573 12.6784C120.387 12.6073 120.188 12.5741 119.989 12.5808Z" fill="#4E5A6A"/>
<path d="M128.858 14.9513C129.25 14.9536 129.632 15.0867 129.944 15.3305L130.304 15.6043L131.072 13.6243L130.866 13.4628C130.252 13.0244 129.516 12.8037 128.769 12.8343C126.671 12.8343 125.369 14.1439 125.369 16.2468V16.7383H123.796V18.8448H125.369V26.9195H127.73V18.8448H130.39V16.7383H127.696V16.2644C127.696 15.3691 128.056 14.9513 128.858 14.9513Z" fill="#4E5A6A"/>
<path d="M136.754 16.6051C133.751 16.6051 131.573 18.7698 131.573 21.7536C131.573 24.7967 133.843 26.9195 137.099 26.9195C138.81 26.9195 140.216 26.3479 141.162 25.2707L141.358 25.0442L139.935 23.4129L139.661 23.7057C139.343 24.045 138.954 24.3125 138.52 24.4895C138.086 24.6665 137.618 24.7487 137.149 24.7305C135.597 24.7305 134.441 23.9357 134.096 22.6704H141.785L141.82 22.3602C141.843 22.1762 141.856 21.9912 141.86 21.8059C141.863 18.7454 139.764 16.6051 136.754 16.6051ZM136.754 18.7419C137.366 18.7211 137.967 18.9097 138.452 19.2755C138.938 19.6413 139.278 20.1613 139.415 20.7462H134.107C134.242 20.163 134.58 19.6441 135.063 19.2784C135.546 18.9127 136.144 18.723 136.754 18.7419Z" fill="#4E5A6A"/>
<defs>
<linearGradient id="paint0_linear" x1="0.674878" y1="12.5649" x2="35.6004" y2="12.5649" gradientUnits="userSpaceOnUse">
<stop stop-color="#2B88D9"/>
<stop offset="1" stop-color="#26E0F5"/>
</linearGradient>
<linearGradient id="paint1_linear" x1="22.3863" y1="8.17997" x2="10.7381" y2="43.1947" gradientUnits="userSpaceOnUse">
<stop stop-color="#39B54A"/>
<stop offset="1" stop-color="#ACDF23"/>
</linearGradient>
</defs>
</svg>
