<svg width="36" height="25" viewBox="0 0 36 25" fill="none" xmlns="http://www.w3.org/2000/svg">
<path opacity="0.2" d="M15.8928 5.82635C14.1655 5.8718 12.7905 6.1559 11.7678 6.67862C10.745 7.17862 9.93821 7.97408 9.3473 9.06499C11.7109 9.06499 13.6655 9.64453 15.2109 10.8036C16.7791 11.9627 17.5632 13.8491 17.5632 16.4627C17.5632 17.44 17.3928 18.3945 17.0518 19.3263C16.7109 20.2582 16.1882 21.0877 15.4837 21.815C14.7791 22.5195 13.9268 23.1104 12.9268 23.5877C11.9268 24.0423 10.7791 24.2695 9.48367 24.2695C6.91548 24.2695 4.8473 23.44 3.27912 21.7809C1.73366 20.0991 0.960938 17.8604 0.960938 15.065C0.960938 13.5195 1.17685 11.9627 1.60866 10.3945C2.06321 8.80362 2.85866 7.33771 3.99503 5.9968C5.13139 4.63317 6.66548 3.43999 8.5973 2.41726C10.5291 1.39453 12.9609 0.678622 15.8928 0.269531V5.82635ZM34.0632 5.82635C32.3359 5.8718 30.9609 6.1559 29.9382 6.67862C28.9155 7.17862 28.0973 7.97408 27.4837 9.06499C29.87 9.06499 31.8359 9.64453 33.3814 10.8036C34.9496 11.9627 35.7337 13.8491 35.7337 16.4627C35.7337 17.44 35.5518 18.3945 35.1882 19.3263C34.8473 20.2582 34.3246 21.0877 33.62 21.815C32.9382 22.5195 32.0973 23.1104 31.0973 23.5877C30.0973 24.0423 28.9382 24.2695 27.62 24.2695C25.0746 24.2695 23.0178 23.44 21.4496 21.7809C19.8814 20.0991 19.0973 17.8604 19.0973 15.065C19.0973 13.5195 19.3132 11.9627 19.745 10.3945C20.1996 8.80362 20.995 7.33771 22.1314 5.9968C23.2905 4.63317 24.8359 3.43999 26.7678 2.41726C28.6996 1.39453 31.1314 0.678622 34.0632 0.269531V5.82635Z" fill="white"/>
</svg>
